<?xml version="1.0" encoding="UTF-8"?>
<svg xmlns="http://www.w3.org/2000/svg" xmlns:xlink="http://www.w3.org/1999/xlink" width="169" height="55" version="1.1">
<g>
<path style=" stroke:none;fill-rule:nonzero;fill:rgb(30.917358%,29.660034%,29.972839%);fill-opacity:1;" d="M73.042969,11.753905749999944 C72.695312,11.753905749999944 72.402344,11.910155749999944 72.164062,12.222655749999944 C71.921875,12.531249750000029 71.800781,12.921874750000029 71.800781,13.394531750000056 C71.800781,13.88671875 71.925781,14.289062749999971 72.183594,14.597655749999944 C72.4375,14.906249750000029 72.746094,15.05859375 73.117188,15.05859375 C73.460938,15.05859375 73.753906,14.90234375 73.996094,14.593749750000029 C74.238281,14.281249750000029 74.359375,13.890624750000029 74.359375,13.41796875 C74.359375,12.925781750000056 74.230469,12.523437749999971 73.976562,12.218749750000029 C73.726562,11.910155749999944 73.414062,11.753905749999944 73.042969,11.753905749999944 " id="svg_5" class=""/>
<path style=" stroke:none;fill-rule:nonzero;fill:rgb(30.917358%,29.660034%,29.972839%);fill-opacity:1;" d="M79.90625,11.781249750000029 C79.804688,11.781249750000029 79.664062,11.79296875 79.488281,11.812499750000029 C79.511719,12.285155749999944 79.523438,12.781249750000029 79.523438,13.296874750000029 C79.523438,13.859374750000029 79.535156,14.421874750000029 79.558594,14.976562749999971 C79.710938,15.007812749999971 79.867188,15.023437749999971 80.019531,15.023437749999971 C80.527344,15.023437749999971 80.90625,14.867187749999971 81.148438,14.550781750000056 C81.394531,14.234374750000029 81.515625,13.847655749999944 81.515625,13.394531750000056 C81.515625,12.941405749999944 81.382812,12.55859375 81.121094,12.24609375 C80.855469,11.937499750000029 80.449219,11.781249750000029 79.90625,11.781249750000029 " id="svg_6" class=""/>
<path style=" stroke:none;fill-rule:nonzero;fill:rgb(30.917358%,29.660034%,29.972839%);fill-opacity:1;" d="M91.523438,11.738281750000056 C91.351562,11.738281750000056 91.17578099999997,11.753905749999944 90.98828099999997,11.79296875 C91.015625,12.238281750000056 91.02734400000003,12.74609375 91.02734400000003,13.30859375 C91.085938,13.312499750000029 91.15625,13.316405749999944 91.234375,13.316405749999944 C92.09765599999997,13.316405749999944 92.53125,13.04296875 92.53125,12.49609375 C92.53125,11.992187749999971 92.195312,11.738281750000056 91.523438,11.738281750000056 " id="svg_7" class=""/>
<path style=" stroke:none;fill-rule:nonzero;fill:rgb(30.917358%,29.660034%,29.972839%);fill-opacity:1;" d="M87.00390599999997,11.726562749999971 C87.00390599999997,11.820312749999971 86.79296900000003,12.48046875 86.375,13.707031750000056 L87.66796900000003,13.707031750000056 C87.26171900000003,12.488281750000056 87.05859400000003,11.828124750000029 87.05859400000003,11.726562749999971 L87.00390599999997,11.726562749999971 " id="svg_8" class=""/>
<path style=" stroke:none;fill-rule:nonzero;fill:rgb(30.917358%,29.660034%,29.972839%);fill-opacity:1;" d="M53.492188,11.726562749999971 C53.492188,11.820312749999971 53.285156,12.48046875 52.867188,13.707031750000056 L54.15625,13.707031750000056 C53.753906,12.488281750000056 53.550781,11.828124750000029 53.550781,11.726562749999971 L53.492188,11.726562749999971 " id="svg_9" class=""/>
<path style=" stroke:none;fill-rule:nonzero;fill:rgb(30.917358%,29.660034%,29.972839%);fill-opacity:1;" d="M68.011719,11.742187749999971 C67.792969,11.742187749999971 67.59375,11.757812749999971 67.425781,11.79296875 C67.453125,12.160155749999944 67.464844,12.63671875 67.464844,13.226562749999971 C67.59375,13.23046875 67.703125,13.23046875 67.792969,13.23046875 C68.546875,13.23046875 68.921875,12.968749750000029 68.921875,12.44921875 C68.921875,11.976562749999971 68.621094,11.742187749999971 68.011719,11.742187749999971 " id="svg_10" class=""/>
<path style=" stroke:none;fill-rule:nonzero;fill:rgb(30.917358%,29.660034%,29.972839%);fill-opacity:1;" d="M62.933594,11.781249750000029 C62.832031,11.781249750000029 62.691406,11.79296875 62.511719,11.812499750000029 C62.539062,12.285155749999944 62.550781,12.781249750000029 62.550781,13.296874750000029 C62.550781,13.859374750000029 62.5625,14.421874750000029 62.585938,14.976562749999971 C62.738281,15.007812749999971 62.890625,15.023437749999971 63.046875,15.023437749999971 C63.554688,15.023437749999971 63.929688,14.867187749999971 64.175781,14.550781750000056 C64.421875,14.234374750000029 64.542969,13.847655749999944 64.542969,13.394531750000056 C64.542969,12.941405749999944 64.410156,12.55859375 64.144531,12.24609375 C63.878906,11.937499750000029 63.476562,11.781249750000029 62.933594,11.781249750000029 " id="svg_11" class=""/>
<path style=" stroke:none;fill-rule:nonzero;fill:rgb(30.917358%,29.660034%,29.972839%);fill-opacity:1;" d="M102.359375,11.753905749999944 C102.015625,11.753905749999944 101.72265599999997,11.910155749999944 101.48046900000003,12.222655749999944 C101.23828099999997,12.531249750000029 101.117188,12.921874750000029 101.117188,13.394531750000056 C101.117188,13.88671875 101.24609400000003,14.289062749999971 101.5,14.597655749999944 C101.75390599999997,14.906249750000029 102.06640599999997,15.05859375 102.43359400000003,15.05859375 C102.78125,15.05859375 103.07421900000003,14.90234375 103.31640599999997,14.593749750000029 C103.554688,14.281249750000029 103.67578099999997,13.890624750000029 103.67578099999997,13.41796875 C103.67578099999997,12.925781750000056 103.55078099999997,12.523437749999971 103.296875,12.218749750000029 C103.04296900000003,11.910155749999944 102.73046900000003,11.753905749999944 102.359375,11.753905749999944 " id="svg_12" class=""/>
<path style=" stroke:none;fill-rule:nonzero;fill:rgb(30.917358%,29.660034%,29.972839%);fill-opacity:1;" d="M95.77734400000003,11.738281750000056 C95.609375,11.738281750000056 95.429688,11.753905749999944 95.24609400000003,11.79296875 C95.26953099999997,12.238281750000056 95.28515599999997,12.74609375 95.28515599999997,13.30859375 C95.34375,13.312499750000029 95.41015599999997,13.316405749999944 95.48828099999997,13.316405749999944 C96.351562,13.316405749999944 96.78515599999997,13.04296875 96.78515599999997,12.49609375 C96.78515599999997,11.992187749999971 96.44921900000003,11.738281750000056 95.77734400000003,11.738281750000056 " id="svg_13" class=""/>
<path style=" stroke:none;fill-rule:nonzero;fill:rgb(30.917358%,29.660034%,29.972839%);fill-opacity:1;" d="M86.52734400000003,28.378905749999944 C85.53515599999997,28.378905749999944 84.671875,28.74999975000003 83.94921900000003,29.488281750000056 C83.222656,30.23046875 82.859375,31.21093774999997 82.859375,32.43359375 C82.859375,33.660155749999944 83.222656,34.64062475000003 83.94921900000003,35.378905749999944 C84.671875,36.12109375 85.53515599999997,36.49218774999997 86.52734400000003,36.49218774999997 C87.51953099999997,36.49218774999997 88.37890599999997,36.12109375 89.10546900000003,35.378905749999944 C89.83203099999997,34.64062475000003 90.195312,33.660155749999944 90.195312,32.43359375 C90.195312,31.21093774999997 89.83203099999997,30.23046875 89.10546900000003,29.488281750000056 C88.37890599999997,28.74999975000003 87.51953099999997,28.378905749999944 86.52734400000003,28.378905749999944 " id="svg_14" class=""/>
<path style=" stroke:none;fill-rule:nonzero;fill:rgb(30.917358%,29.660034%,29.972839%);fill-opacity:1;" d="M74.261719,28.378905749999944 C73.269531,28.378905749999944 72.410156,28.74999975000003 71.683594,29.488281750000056 C70.957031,30.23046875 70.59375,31.21093774999997 70.59375,32.43359375 C70.59375,33.660155749999944 70.957031,34.64062475000003 71.683594,35.378905749999944 C72.410156,36.12109375 73.269531,36.49218774999997 74.261719,36.49218774999997 C75.253906,36.49218774999997 76.117188,36.12109375 76.839844,35.378905749999944 C77.566406,34.64062475000003 77.929688,33.660155749999944 77.929688,32.43359375 C77.929688,31.21093774999997 77.566406,30.23046875 76.839844,29.488281750000056 C76.117188,28.74999975000003 75.253906,28.378905749999944 74.261719,28.378905749999944 " id="svg_15" class=""/>
<path style=" stroke:none;fill-rule:nonzero;fill:rgb(30.917358%,29.660034%,29.972839%);fill-opacity:1;" d="M132.46484400000003,23.65624975000003 L128.9375,23.65624975000003 L128.9375,29.38671875 L132.46484400000003,29.38671875 C133.351562,29.38671875 134.0625,29.08593774999997 134.59765599999997,28.49218774999997 C135.132812,27.894531750000056 135.40234400000003,27.238281750000056 135.40234400000003,26.519531750000056 C135.40234400000003,25.800781750000056 135.132812,25.144531750000056 134.59765599999997,24.550781750000056 C134.0625,23.95312475000003 133.351562,23.65624975000003 132.46484400000003,23.65624975000003 " id="svg_16" class=""/>
<path style=" stroke:none;fill-rule:nonzero;fill:rgb(30.917358%,29.660034%,29.972839%);fill-opacity:1;" d="M145.257812,33.144531750000056 C144.73828099999997,33.58984375 144.476562,34.10937475000003 144.476562,34.707031750000056 C144.476562,35.253905749999944 144.71484400000003,35.691405749999944 145.19140599999997,36.01171875 C145.664062,36.332031750000056 146.20703099999997,36.49218774999997 146.81640599999997,36.49218774999997 C147.6875,36.49218774999997 148.476562,36.16796875 149.19140599999997,35.519531750000056 C149.90234400000003,34.87109375 150.25390599999997,34.10156274999997 150.25390599999997,33.21484375 C149.66015599999997,32.72656274999997 148.765625,32.48046875 147.57421900000003,32.48046875 C146.546875,32.48046875 145.77734400000003,32.70312475000003 145.257812,33.144531750000056 " id="svg_17" class=""/>
<path style=" stroke:none;fill-rule:nonzero;fill:rgb(30.917358%,29.660034%,29.972839%);fill-opacity:1;" d="M115.08984400000003,28.378905749999944 C114.30859400000003,28.378905749999944 113.632812,28.62109375 113.0625,29.113281750000056 C112.48828099999997,29.60156274999997 112.09375,30.25781274999997 111.87890599999997,31.082031750000056 L118.390625,31.082031750000056 C118.34375,30.441405749999944 118.05078099999997,29.832031750000056 117.507812,29.24999975000003 C116.96484400000003,28.66796875 116.16015599999997,28.378905749999944 115.08984400000003,28.378905749999944 " id="svg_18" class=""/>
<path style=" stroke:none;fill-rule:nonzero;fill:rgb(30.917358%,29.660034%,29.972839%);fill-opacity:1;" d="M98.69921900000003,28.378905749999944 C97.72265599999997,28.378905749999944 96.87890599999997,28.74999975000003 96.179688,29.488281750000056 C95.476562,30.23046875 95.125,31.21093774999997 95.125,32.43359375 C95.125,33.660155749999944 95.476562,34.64062475000003 96.179688,35.378905749999944 C96.87890599999997,36.12109375 97.72265599999997,36.49218774999997 98.69921900000003,36.49218774999997 C99.695312,36.49218774999997 100.539062,36.12499975000003 101.234375,35.39062475000003 C101.929688,34.660155749999944 102.27734400000003,33.67187475000003 102.27734400000003,32.43359375 C102.27734400000003,31.19531274999997 101.929688,30.21093774999997 101.234375,29.48046875 C100.539062,28.74609375 99.695312,28.378905749999944 98.69921900000003,28.378905749999944 " id="svg_19" class=""/>
<path style=" stroke:none;fill-rule:nonzero;fill:rgb(30.917358%,29.660034%,29.972839%);fill-opacity:1;" d="M156.859375,43.003905749999944 L154.679688,43.003905749999944 L157.29296900000003,37.33984375 L152.664062,26.816405749999944 L154.95703099999997,26.816405749999944 L158.30078099999997,34.88671875 L158.34765599999997,34.88671875 L161.601562,26.816405749999944 L163.89453099999997,26.816405749999944 zM152.273438,38.050781750000056 L150.25390599999997,38.050781750000056 L150.25390599999997,36.49218774999997 L150.164062,36.49218774999997 C149.32421900000003,37.77734375 148.09375,38.41796875 146.47265599999997,38.41796875 C145.28125,38.41796875 144.28515599999997,38.07421875 143.48046900000003,37.38671875 C142.679688,36.69921875 142.27734400000003,35.78906274999997 142.27734400000003,34.660155749999944 C142.27734400000003,33.43749975000003 142.75,32.47656274999997 143.69921900000003,31.78124975000003 C144.648438,31.08593774999997 145.81640599999997,30.738281750000056 147.20703099999997,30.738281750000056 C148.445312,30.738281750000056 149.460938,30.96874975000003 150.25390599999997,31.425781750000056 L150.25390599999997,31.10546875 C150.25390599999997,30.28124975000003 149.97265599999997,29.62109375 149.40625,29.12499975000003 C148.83984400000003,28.62499975000003 148.148438,28.378905749999944 147.320312,28.378905749999944 C146.710938,28.378905749999944 146.15625,28.52343774999997 145.66015599999997,28.81249975000003 C145.164062,29.10546875 144.82421900000003,29.49999975000003 144.63671900000003,30.003905749999944 L142.710938,29.17968774999997 C142.97265599999997,28.50781274999997 143.484375,27.88281274999997 144.25,27.31249975000003 C145.01171900000003,26.738281750000056 146.023438,26.45312475000003 147.27734400000003,26.45312475000003 C148.710938,26.45312475000003 149.90234400000003,26.87499975000003 150.851562,27.71093774999997 C151.796875,28.55468774999997 152.273438,29.738281750000056 152.273438,31.26562475000003 zM141.039062,38.050781750000056 L138.929688,38.050781750000056 L138.929688,21.63671875 L141.039062,21.63671875 zM136.03125,30.01562475000003 C135.015625,30.941405749999944 133.8125,31.40234375 132.421875,31.40234375 L128.9375,31.40234375 L128.9375,38.050781750000056 L126.828125,38.050781750000056 L126.828125,21.63671875 L132.421875,21.63671875 C133.8125,21.63671875 135.015625,22.10156274999997 136.03125,23.02343774999997 C137.046875,23.94921875 137.554688,25.11718774999997 137.554688,26.519531750000056 C137.554688,27.925781750000056 137.046875,29.09374975000003 136.03125,30.01562475000003 zM120.617188,32.82421875 L111.742188,32.82421875 C111.804688,33.957031750000056 112.18359400000003,34.85156274999997 112.87890599999997,35.50781274999997 C113.57421900000003,36.16406274999997 114.38671900000003,36.49218774999997 115.320312,36.49218774999997 C116.83203099999997,36.49218774999997 117.85546900000003,35.85156274999997 118.390625,34.566405749999944 L120.26953099999997,35.347655749999944 C119.90625,36.21874975000003 119.30078099999997,36.94921875 118.460938,37.535155749999944 C117.62109400000003,38.12499975000003 116.585938,38.41796875 115.367188,38.41796875 C113.66796900000003,38.41796875 112.289062,37.85546875 111.226562,36.722655749999944 C110.164062,35.58984375 109.632812,34.16406274999997 109.632812,32.43359375 C109.632812,30.800781750000056 110.148438,29.394531750000056 111.179688,28.21484375 C112.210938,27.04296875 113.53125,26.45312475000003 115.13671900000003,26.45312475000003 C116.80078099999997,26.45312475000003 118.132812,26.99609375 119.13671900000003,28.082031750000056 C120.13671900000003,29.16406274999997 120.63671900000003,30.61718774999997 120.63671900000003,32.43359375 zM109.46484400000003,15.710937749999971 L108.585938,15.710937749999971 C108.585938,15.613281750000056 108.26171900000003,15.101562749999971 107.61328099999997,14.175781750000056 C106.929688,13.19921875 106.54296900000003,12.531249750000029 106.44921900000003,12.171874750000029 L106.390625,12.171874750000029 C106.44921900000003,12.687499750000029 106.48046900000003,13.156249750000029 106.48046900000003,13.57421875 C106.48046900000003,14.160155749999944 106.49609400000003,14.87109375 106.53125,15.710937749999971 L105.65625,15.710937749999971 C105.69140599999997,14.976562749999971 105.710938,14.171874750000029 105.710938,13.296874750000029 C105.710938,12.43359375 105.69140599999997,11.69921875 105.65625,11.093749750000029 L106.710938,11.093749750000029 C106.710938,11.218749750000029 107.00390599999997,11.718749750000029 107.585938,12.593749750000029 C108.210938,13.523437749999971 108.56640599999997,14.15234375 108.66015599999997,14.484374750000029 L108.710938,14.484374750000029 C108.65625,13.957031750000056 108.625,13.484374750000029 108.625,13.066405749999944 C108.625,12.425781750000056 108.609375,11.765624750000029 108.578125,11.093749750000029 L109.46484400000003,11.093749750000029 C109.429688,11.679687749999971 109.414062,12.414062749999971 109.414062,13.296874750000029 C109.414062,14.18359375 109.429688,14.992187749999971 109.46484400000003,15.710937749999971 zM108.398438,38.050781750000056 L106.289062,38.050781750000056 L106.289062,21.63671875 L108.398438,21.63671875 zM103.98828099999997,15.12109375 C103.54296900000003,15.601562749999971 102.992188,15.83984375 102.33984400000003,15.83984375 C101.71484400000003,15.83984375 101.19140599999997,15.62109375 100.76953099999997,15.179687749999971 C100.351562,14.742187749999971 100.140625,14.18359375 100.140625,13.507812749999971 C100.140625,12.781249750000029 100.36328099999997,12.179687749999971 100.804688,11.703124750000029 C101.25,11.226562749999971 101.80078099999997,10.984374750000029 102.45703099999997,10.984374750000029 C103.08203099999997,10.984374750000029 103.601562,11.203124750000029 104.023438,11.640624750000029 C104.445312,12.078124750000029 104.65625,12.63671875 104.65625,13.316405749999944 C104.65625,14.04296875 104.43359400000003,14.644531750000056 103.98828099999997,15.12109375 zM104.29296900000003,37.48046875 C104.29296900000003,39.40624975000003 103.734375,40.86718774999997 102.62109400000003,41.87109375 C101.50390599999997,42.87109375 100.14453099999997,43.37109375 98.539062,43.37109375 C97.210938,43.37109375 96.125,43.03906274999997 95.28515599999997,42.37499975000003 C94.445312,41.707031750000056 93.83984400000003,40.94531274999997 93.47265599999997,40.08984375 L95.398438,39.28906274999997 C95.61328099999997,39.89843774999997 96.007812,40.41406274999997 96.58203099999997,40.82421875 C97.15234400000003,41.238281750000056 97.804688,41.44531274999997 98.539062,41.44531274999997 C99.703125,41.44531274999997 100.61328099999997,41.097655749999944 101.28125,40.40234375 C101.945312,39.707031750000056 102.27734400000003,38.76171875 102.27734400000003,37.57031274999997 L102.27734400000003,36.49218774999997 L102.18359400000003,36.49218774999997 C101.81640599999997,37.04296875 101.296875,37.49999975000003 100.625,37.86718774999997 C99.953125,38.23437475000003 99.195312,38.41796875 98.35546900000003,38.41796875 C96.90625,38.41796875 95.65234400000003,37.84374975000003 94.59765599999997,36.69921875 C93.54296900000003,35.550781750000056 93.015625,34.13281274999997 93.015625,32.43359375 C93.015625,30.738281750000056 93.54296900000003,29.316405749999944 94.59765599999997,28.17187475000003 C95.65234400000003,27.02343774999997 96.90625,26.45312475000003 98.35546900000003,26.45312475000003 C99.195312,26.45312475000003 99.953125,26.63671875 100.625,26.99999975000003 C101.296875,27.37109375 101.81640599999997,27.82812475000003 102.18359400000003,28.378905749999944 L102.27734400000003,28.378905749999944 L102.27734400000003,26.816405749999944 L104.29296900000003,26.816405749999944 zM91.26953099999997,13.957031750000056 C91.16015599999997,13.957031750000056 91.078125,13.957031750000056 91.03125,13.953124750000029 C91.03125,14.394531750000056 91.046875,14.984374750000029 91.070312,15.710937749999971 L90.07421900000003,15.710937749999971 C90.10546900000003,15.02734375 90.12109400000003,14.222655749999944 90.12109400000003,13.296874750000029 C90.12109400000003,12.445312749999971 90.10546900000003,11.710937749999971 90.07421900000003,11.093749750000029 L90.69140599999997,11.093749750000029 C90.77734400000003,11.093749750000029 90.945312,11.08984375 91.195312,11.082031750000056 C91.445312,11.07421875 91.66015599999997,11.070312749999971 91.83984400000003,11.070312749999971 C92.289062,11.070312749999971 92.66796900000003,11.171874750000029 92.98046900000003,11.374999750000029 C93.289062,11.578124750000029 93.445312,11.88671875 93.445312,12.300781750000056 C93.445312,12.867187749999971 93.234375,13.285155749999944 92.81640599999997,13.554687749999971 C92.39453099999997,13.82421875 91.87890599999997,13.957031750000056 91.26953099999997,13.957031750000056 zM90.67578099999997,36.71093774999997 C89.58984400000003,37.847655749999944 88.20703099999997,38.41796875 86.52734400000003,38.41796875 C84.84375,38.41796875 83.460938,37.847655749999944 82.378906,36.71093774999997 C81.292969,35.57031274999997 80.75,34.14843774999997 80.75,32.43359375 C80.75,30.722655749999944 81.292969,29.29687475000003 82.378906,28.160155749999944 C83.460938,27.019531750000056 84.84375,26.45312475000003 86.52734400000003,26.45312475000003 C88.20703099999997,26.45312475000003 89.58984400000003,27.019531750000056 90.67578099999997,28.160155749999944 C91.76171900000003,29.29687475000003 92.304688,30.722655749999944 92.304688,32.43359375 C92.304688,34.14843774999997 91.76171900000003,35.57031274999997 90.67578099999997,36.71093774999997 zM78.414062,36.71093774999997 C77.328125,37.847655749999944 75.945312,38.41796875 74.261719,38.41796875 C72.582031,38.41796875 71.199219,37.847655749999944 70.113281,36.71093774999997 C69.027344,35.57031274999997 68.484375,34.14843774999997 68.484375,32.43359375 C68.484375,30.722655749999944 69.027344,29.29687475000003 70.113281,28.160155749999944 C71.199219,27.019531750000056 72.582031,26.45312475000003 74.261719,26.45312475000003 C75.945312,26.45312475000003 77.328125,27.019531750000056 78.414062,28.160155749999944 C79.496094,29.29687475000003 80.039062,30.722655749999944 80.039062,32.43359375 C80.039062,34.14843774999997 79.496094,35.57031274999997 78.414062,36.71093774999997 zM67.46875,13.87109375 C67.46875,14.476562749999971 67.476562,15.093749750000029 67.5,15.710937749999971 L66.511719,15.710937749999971 C66.542969,14.99609375 66.558594,14.191405749999944 66.558594,13.296874750000029 C66.558594,12.43359375 66.542969,11.69921875 66.511719,11.093749750000029 L67.128906,11.093749750000029 C67.199219,11.093749750000029 67.347656,11.08984375 67.574219,11.082031750000056 C67.796875,11.07421875 68.007812,11.070312749999971 68.199219,11.070312749999971 C69.285156,11.070312749999971 69.828125,11.441405749999944 69.828125,12.18359375 C69.828125,12.773437749999971 69.515625,13.18359375 68.898438,13.41796875 L68.898438,13.468749750000029 C69.136719,13.535155749999944 69.34375,13.722655749999944 69.527344,14.02734375 C69.703125,14.335937749999971 69.949219,14.894531750000056 70.253906,15.710937749999971 L69.203125,15.710937749999971 C68.925781,14.874999750000029 68.71875,14.359374750000029 68.570312,14.160155749999944 C68.425781,13.96484375 68.1875,13.867187749999971 67.863281,13.867187749999971 C67.722656,13.867187749999971 67.59375,13.867187749999971 67.46875,13.87109375 zM65.574219,35.988281750000056 C64.03125,37.60937475000003 62.019531,38.41796875 59.542969,38.41796875 C57.175781,38.41796875 55.164062,37.597655749999944 53.503906,35.95312475000003 C51.84375,34.31249975000003 51.015625,32.27343774999997 51.015625,29.84374975000003 C51.015625,27.41406274999997 51.84375,25.378905749999944 53.503906,23.73437475000003 C55.164062,22.09374975000003 57.175781,21.269531750000056 59.542969,21.269531750000056 C60.722656,21.269531750000056 61.84375,21.49999975000003 62.914062,21.96093774999997 C63.984375,22.41796875 64.839844,23.03124975000003 65.484375,23.79296875 L64.039062,25.238281750000056 C62.953125,23.93749975000003 61.457031,23.28906274999997 59.542969,23.28906274999997 C57.816406,23.28906274999997 56.324219,23.894531750000056 55.0625,25.113281750000056 C53.800781,26.32421875 53.171875,27.90624975000003 53.171875,29.84374975000003 C53.171875,31.785155749999944 53.800781,33.363281750000056 55.0625,34.57812475000003 C56.324219,35.79296875 57.816406,36.40234375 59.542969,36.40234375 C61.378906,36.40234375 62.90625,35.78906274999997 64.128906,34.566405749999944 C64.925781,33.77343774999997 65.382812,32.66406274999997 65.503906,31.24218774999997 L59.542969,31.24218774999997 L59.542969,29.269531750000056 L67.5,29.269531750000056 C67.578125,29.69921875 67.613281,30.113281750000056 67.613281,30.50781274999997 C67.613281,32.800781750000056 66.933594,34.628905749999944 65.574219,35.988281750000056 zM44.351562,31.02734375 C44.039062,31.25781274999997 43.695312,31.44921875 43.355469,31.63671875 C41.332031,32.753905749999944 39.304688,33.863281750000056 37.285156,34.988281750000056 C37.011719,35.14062475000003 36.851562,35.13281274999997 36.625,34.89843774999997 C35.1875,33.41796875 33.738281,31.94531274999997 32.28125,30.48046875 C32.070312,30.26562475000003 32.0625,30.14843774999997 32.28125,29.93749975000003 C33.976562,28.26171875 35.667969,26.582031750000056 37.347656,24.89062475000003 C37.546875,24.691405749999944 37.691406,24.66796875 37.9375,24.80859375 C39.933594,25.941405749999944 41.941406,27.05859375 43.945312,28.17968774999997 C44.566406,28.52734375 45.046875,28.97656274999997 45.074219,29.71093774999997 C45.050781,30.300781750000056 44.773438,30.71874975000003 44.351562,31.02734375 zM35.632812,35.894531750000056 C28.941406,39.55859375 22.257812,43.23046875 15.570312000000001,46.90234375 C15.460937999999999,46.96093774999997 15.359375,47.05859375 15.300781,47.097655749999944 C20.511719,41.82812475000003 25.726562,36.566405749999944 30.929688,31.285155749999944 C31.25,30.957031750000056 31.402344,30.99999975000003 31.691406,31.300781750000056 C33.011719,32.675781750000056 34.351562,34.035155749999944 35.699219,35.38281274999997 C35.933594,35.62109375 35.953125,35.71874975000003 35.632812,35.894531750000056 zM12.507812000000001,47.285155749999944 C11.90625,46.82031274999997 11.675781,46.20312475000003 11.675781,45.46874975000003 C11.679687999999999,42.363281750000056 11.671875,39.25781274999997 11.671875,36.15234375 C11.667969,33.957031750000056 11.671875,31.76171875 11.671875,29.566405749999944 C11.671875,29.566405749999944 11.675781,29.566405749999944 11.679687999999999,29.566405749999944 C11.679687999999999,24.32421875 11.679687999999999,19.082031750000056 11.675781,13.835937749999971 C11.675781,13.195312749999971 11.800781,12.60546875 12.257812000000001,12.12109375 C12.433594,11.93359375 12.5625,11.882812749999971 12.78125,12.101562749999971 C16.304688,15.703124750000029 19.84375,19.29296875 23.378906,22.88671875 C25.667969,25.21093774999997 27.957031,27.53906274999997 30.253906,29.85546875 C30.476562,30.082031750000056 30.496094,30.19921875 30.261719,30.43359375 C24.636719,36.02343774999997 19.019531,41.62109375 13.417969,47.23046875 C13.074219,47.57421875 12.835937999999999,47.53906274999997 12.507812000000001,47.285155749999944 zM14.71875,11.80859375 C21.898438,15.828124750000029 29.078125,19.85546875 36.261719,23.87109375 C36.589844,24.05468774999997 36.585938,24.15624975000003 36.328125,24.410155749999944 C34.722656,25.988281750000056 33.128906,27.582031750000056 31.539062,29.175781750000056 C31.367188,29.347655749999944 31.261719,29.44531274999997 31.03125,29.21093774999997 C25.320312,23.38671875 19.597656,17.566405749999944 13.878906,11.749999750000029 C13.832031,11.69921875 13.792969,11.640624750000029 13.695312000000001,11.523437749999971 C14.125,11.519531750000056 14.425781,11.644531750000056 14.71875,11.80859375 zM52.125,13.441405749999944 C52.675781,12.019531750000056 52.953125,11.238281750000056 52.953125,11.093749750000029 L54.292969,11.093749750000029 C54.292969,11.226562749999971 54.542969,11.999999750000029 55.046875,13.406249750000029 C55.546875,14.816405749999944 55.796875,15.582031750000056 55.796875,15.710937749999971 L54.660156,15.710937749999971 C54.660156,15.554687749999971 54.550781,15.113281750000056 54.335938,14.382812749999971 L52.699219,14.382812749999971 C52.476562,15.101562749999971 52.367188,15.54296875 52.367188,15.710937749999971 L51.296875,15.710937749999971 C51.296875,15.62109375 51.574219,14.863281750000056 52.125,13.441405749999944 zM56.5625,11.093749750000029 L57.617188,11.093749750000029 C57.617188,11.218749750000029 57.910156,11.718749750000029 58.492188,12.593749750000029 C59.117188,13.523437749999971 59.472656,14.15234375 59.566406,14.484374750000029 L59.617188,14.484374750000029 C59.558594,13.957031750000056 59.53125,13.484374750000029 59.53125,13.066405749999944 C59.53125,12.425781750000056 59.515625,11.765624750000029 59.484375,11.093749750000029 L60.371094,11.093749750000029 C60.335938,11.679687749999971 60.320312,12.414062749999971 60.320312,13.296874750000029 C60.320312,14.18359375 60.335938,14.992187749999971 60.371094,15.710937749999971 L59.492188,15.710937749999971 C59.492188,15.613281750000056 59.167969,15.101562749999971 58.515625,14.175781750000056 C57.835938,13.19921875 57.449219,12.531249750000029 57.355469,12.171874750000029 L57.296875,12.171874750000029 C57.355469,12.687499750000029 57.386719,13.156249750000029 57.386719,13.57421875 C57.386719,14.160155749999944 57.402344,14.87109375 57.433594,15.710937749999971 L56.5625,15.710937749999971 C56.597656,14.976562749999971 56.617188,14.171874750000029 56.617188,13.296874750000029 C56.617188,12.43359375 56.597656,11.69921875 56.5625,11.093749750000029 zM61.609375,11.093749750000029 L62.230469,11.093749750000029 C62.332031,11.093749750000029 62.484375,11.08984375 62.683594,11.082031750000056 C62.882812,11.07421875 63.015625,11.070312749999971 63.078125,11.070312749999971 C63.929688,11.070312749999971 64.550781,11.285155749999944 64.933594,11.710937749999971 C65.320312,12.13671875 65.511719,12.644531750000056 65.511719,13.242187749999971 C65.511719,13.914062749999971 65.296875,14.499999750000029 64.867188,14.999999750000029 C64.433594,15.503905749999944 63.832031,15.753905749999944 63.054688,15.753905749999944 C62.707031,15.753905749999944 62.222656,15.738281750000056 61.609375,15.710937749999971 C61.640625,14.99609375 61.65625,14.191405749999944 61.65625,13.296874750000029 C61.65625,12.43359375 61.640625,11.69921875 61.609375,11.093749750000029 zM71.488281,11.703124750000029 C71.933594,11.226562749999971 72.484375,10.984374750000029 73.136719,10.984374750000029 C73.761719,10.984374750000029 74.285156,11.203124750000029 74.707031,11.640624750000029 C75.125,12.078124750000029 75.335938,12.63671875 75.335938,13.316405749999944 C75.335938,14.04296875 75.117188,14.644531750000056 74.671875,15.12109375 C74.226562,15.601562749999971 73.675781,15.83984375 73.023438,15.83984375 C72.398438,15.83984375 71.875,15.62109375 71.453125,15.179687749999971 C71.03125,14.742187749999971 70.820312,14.18359375 70.820312,13.507812749999971 C70.820312,12.781249750000029 71.042969,12.179687749999971 71.488281,11.703124750000029 zM76.339844,11.093749750000029 L77.34375,11.093749750000029 C77.3125,11.687499750000029 77.296875,12.421874750000029 77.296875,13.296874750000029 C77.296875,14.187499750000029 77.3125,14.992187749999971 77.34375,15.710937749999971 L76.339844,15.710937749999971 C76.371094,14.976562749999971 76.386719,14.171874750000029 76.386719,13.296874750000029 C76.386719,12.43359375 76.371094,11.69921875 76.339844,11.093749750000029 zM78.582031,11.093749750000029 L79.203125,11.093749750000029 C79.304688,11.093749750000029 79.457031,11.08984375 79.65625,11.082031750000056 C79.859375,11.07421875 79.992188,11.070312749999971 80.050781,11.070312749999971 C80.90625,11.070312749999971 81.523438,11.285155749999944 81.910156,11.710937749999971 C82.292969,12.13671875 82.484375,12.644531750000056 82.484375,13.242187749999971 C82.484375,13.914062749999971 82.269531,14.499999750000029 81.839844,14.999999750000029 C81.410156,15.503905749999944 80.804688,15.753905749999944 80.03125,15.753905749999944 C79.679688,15.753905749999944 79.199219,15.738281750000056 78.582031,15.710937749999971 C78.613281,14.99609375 78.628906,14.191405749999944 78.628906,13.296874750000029 C78.628906,12.43359375 78.613281,11.69921875 78.582031,11.093749750000029 zM85.63671900000003,13.441405749999944 C86.1875,12.019531750000056 86.46484400000003,11.238281750000056 86.46484400000003,11.093749750000029 L87.804688,11.093749750000029 C87.804688,11.226562749999971 88.054688,11.999999750000029 88.554688,13.406249750000029 C89.054688,14.816405749999944 89.304688,15.582031750000056 89.304688,15.710937749999971 L88.171875,15.710937749999971 C88.171875,15.554687749999971 88.0625,15.113281750000056 87.84765599999997,14.382812749999971 L86.210938,14.382812749999971 C85.98828099999997,15.101562749999971 85.875,15.54296875 85.875,15.710937749999971 L84.80859400000003,15.710937749999971 C84.80859400000003,15.62109375 85.085938,14.863281750000056 85.63671900000003,13.441405749999944 zM94.328125,11.093749750000029 L94.945312,11.093749750000029 C95.03515599999997,11.093749750000029 95.203125,11.08984375 95.44921900000003,11.082031750000056 C95.69921900000003,11.07421875 95.914062,11.070312749999971 96.09375,11.070312749999971 C96.54296900000003,11.070312749999971 96.92578099999997,11.171874750000029 97.234375,11.374999750000029 C97.54296900000003,11.578124750000029 97.69921900000003,11.88671875 97.69921900000003,12.300781750000056 C97.69921900000003,12.867187749999971 97.48828099999997,13.285155749999944 97.070312,13.554687749999971 C96.648438,13.82421875 96.132812,13.957031750000056 95.523438,13.957031750000056 C95.414062,13.957031750000056 95.335938,13.957031750000056 95.28515599999997,13.953124750000029 C95.28515599999997,14.394531750000056 95.30078099999997,14.984374750000029 95.32421900000003,15.710937749999971 L94.328125,15.710937749999971 C94.359375,15.02734375 94.375,14.222655749999944 94.375,13.296874750000029 C94.375,12.445312749999971 94.359375,11.710937749999971 94.328125,11.093749750000029 zM161.445312,-2.4999997094710125e-7 L7.46875,-2.4999997094710125e-7 C3.34375,-2.4999997094710125e-7 0,3.343749750000029 0,7.468749750000029 L0,47.785155749999944 C0,51.910155749999944 3.34375,55.253905749999944 7.46875,55.253905749999944 L161.445312,55.253905749999944 C165.56640599999997,55.253905749999944 168.91015599999997,51.910155749999944 168.91015599999997,47.785155749999944 L168.91015599999997,7.468749750000029 C168.91015599999997,3.343749750000029 165.56640599999997,-2.4999997094710125e-7 161.445312,-2.4999997094710125e-7 " id="svg_20" class=""/>
</g>
</svg>