<?xml version="1.0" encoding="UTF-8"?>
<svg xmlns="http://www.w3.org/2000/svg" xmlns:xlink="http://www.w3.org/1999/xlink" width="159" height="55" version="1.1" style="">
<g>
<path style=" stroke:none;fill-rule:nonzero;fill:rgb(30.917358%,29.660034%,29.972839%);fill-opacity:1;" d="M143.05859876837155,14.312507879394502 C141.9882857683716,14.312507879394502 141.53906676837158,15.281257879394502 141.46875476837158,15.984382879394502 L144.48047376837155,15.984382879394502 C144.49219276837158,15.35156987939456 144.21094276837158,14.312507879394502 143.05859876837155,14.312507879394502 zM75.74609876837155,18.06641387939453 C75.74609876837155,18.74219487939456 76.18359876837155,19.05469487939456 76.73047376837155,19.05469487939456 C77.43750476837158,19.05469487939456 77.92969276837158,18.60156987939456 78.09766076837161,18.109382879394502 C78.14062976837158,17.984382879394502 78.14062976837158,17.855476879394587 78.14062976837158,17.730476879394587 L78.14062976837158,16.78906987939456 C76.91406676837158,16.77344487939456 75.74609876837155,17.027350879394476 75.74609876837155,18.06641387939453 zM109.05078576837161,14.38281987939456 C107.82422376837155,14.38281987939456 107.33594276837158,15.578132879394502 107.33594276837158,16.714850879394476 C107.33594276837158,18.03906987939456 107.99609876837155,19.03906987939456 109.03516076837161,19.03906987939456 C110.01953576837161,19.03906987939456 110.71094276837158,18.08203887939453 110.71094276837158,16.69141387939453 C110.71094276837158,15.621100879394476 110.23047376837155,14.38281987939456 109.05078576837161,14.38281987939456 zM97.42187976837158,14.312507879394502 C96.35547376837155,14.312507879394502 95.90625476837158,15.281257879394502 95.83594276837158,15.984382879394502 L98.84375476837158,15.984382879394502 C98.85937976837158,15.35156987939456 98.57812976837158,14.312507879394502 97.42187976837158,14.312507879394502 zM84.96875476837158,14.480476879394587 C84.26562976837158,14.480476879394587 83.61719276837158,14.988288879394531 83.43359876837155,15.746100879394476 C83.40625476837158,15.875007879394502 83.37500476837158,16.027350879394476 83.37500476837158,16.19531987939456 L83.37500476837158,17.308600879394476 C83.37500476837158,17.449226879394587 83.39062976837158,17.589850879394476 83.41797376837155,17.714850879394476 C83.60156676837158,18.417976879394587 84.20703576837161,18.92578887939453 84.95312976837158,18.92578887939453 C86.03516076837161,18.92578887939453 86.69922376837155,18.06641387939453 86.69922376837155,16.67578887939453 C86.69922376837155,15.464850879394476 86.12109876837155,14.480476879394587 84.96875476837158,14.480476879394587 zM146.0664107683716,36.8593828793945 L137.19531676837158,36.8593828793945 C137.23047376837155,38.16797687939459 137.6601607683716,39.16797687939459 138.48437976837158,39.86328887939453 C139.23047376837155,40.4843828793945 140.19531676837158,40.79297687939459 141.38672376837155,40.79297687939459 C142.69922376837155,40.79297687939459 143.8945357683716,40.58594487939456 144.9726607683716,40.16016387939453 L145.43750476837158,42.214850879394476 C144.18359876837155,42.76953887939453 142.6914107683716,43.03516387939453 140.9726607683716,43.03516387939453 C138.91406676837158,43.03516387939453 137.29297376837155,42.433600879394476 136.11719276837158,41.2187578793945 C134.9414107683716,40.00781987939456 134.3476607683716,38.37891387939453 134.3476607683716,36.33594487939456 C134.3476607683716,34.32422687939459 134.89844276837158,32.6562578793945 135.9882857683716,31.32031987939456 C137.1445357683716,29.89844487939456 138.69531676837158,29.187507879394502 140.6445357683716,29.187507879394502 C142.5664107683716,29.187507879394502 144.01562976837158,29.89844487939456 144.99609876837155,31.32031987939456 C145.78125476837158,32.4531328793945 146.1757857683716,33.85156987939456 146.1757857683716,35.5156328793945 C146.1757857683716,36.03906987939456 146.13672376837155,36.4843828793945 146.0664107683716,36.8593828793945 zM133.86719276837158,16.027350879394476 L133.86719276837158,20.136726879394587 L132.13672376837155,20.136726879394587 L132.13672376837155,10.14844487939456 L133.86719276837158,10.14844487939456 L133.86719276837158,14.21094487939456 L133.8945357683716,14.21094487939456 C134.10547376837155,13.890632879394502 134.40234876837155,13.621100879394476 134.7539107683716,13.441413879394531 C135.10547376837155,13.24219487939456 135.51172376837155,13.128913879394531 135.94922376837155,13.128913879394531 C137.11719276837158,13.128913879394531 138.34375476837158,13.902350879394476 138.34375476837158,16.09766387939453 L138.34375476837158,20.136726879394587 L136.60937976837158,20.136726879394587 L136.60937976837158,16.281257879394502 C136.60937976837158,15.296882879394502 136.24219276837158,14.535163879394531 135.28906676837158,14.535163879394531 C134.6132857683716,14.535163879394531 134.13281676837158,14.988288879394531 133.93750476837158,15.50781987939456 C133.88281676837158,15.660163879394531 133.86719276837158,15.843757879394502 133.86719276837158,16.027350879394476 zM133.41797376837155,32.08594487939456 C133.1289107683716,32.03516387939453 132.81250476837158,32.01172687939459 132.4882857683716,32.01172687939459 C131.44531676837158,32.01172687939459 130.6445357683716,32.4062578793945 130.07812976837158,33.1875078793945 C129.58594276837158,33.88281987939456 129.33984876837155,34.746100879394476 129.33984876837155,35.8125078793945 L129.33984876837155,42.79297687939459 L126.38281676837158,42.79297687939459 L126.38281676837158,33.6718828793945 C126.38281676837158,32.14844487939456 126.35547376837155,30.75391387939453 126.30469276837158,29.48828887939453 L128.8789107683716,29.48828887939453 L128.9882857683716,32.03516387939453 L129.0664107683716,32.03516387939453 C129.3789107683716,31.16016387939453 129.86719276837158,30.45703887939453 130.54687976837158,29.933600879394476 C131.20312976837158,29.453132879394502 131.91797376837155,29.22266387939453 132.68359876837155,29.22266387939453 C132.95312976837158,29.22266387939453 133.20312976837158,29.234382879394502 133.41797376837155,29.27344487939456 zM125.82812976837158,13.285163879394531 L126.80078576837161,13.285163879394531 L126.80078576837161,12.003913879394531 L128.5039107683716,11.52344487939456 L128.5039107683716,13.285163879394531 L130.14844276837158,13.285163879394531 L130.14844276837158,14.578132879394502 L128.5039107683716,14.578132879394502 L128.5039107683716,17.60156987939456 C128.5039107683716,18.449226879394587 128.73047376837155,18.871100879394476 129.39062976837158,18.871100879394476 C129.69922376837155,18.871100879394476 129.86719276837158,18.855476879394587 130.0664107683716,18.80078887939453 L130.09375476837158,20.109382879394502 C129.83984876837155,20.20703887939453 129.37500476837158,20.292976879394587 128.84375476837158,20.292976879394587 C128.19531676837158,20.292976879394587 127.67187976837158,20.078132879394502 127.35156676837158,19.730476879394587 C126.96875476837158,19.33594487939456 126.80078576837161,18.699226879394587 126.80078576837161,17.80078887939453 L126.80078576837161,14.578132879394502 L125.82812976837158,14.578132879394502 zM122.77344276837158,41.07031987939456 C121.55078576837161,42.41797687939459 119.92578576837161,43.0937578793945 117.90234876837155,43.0937578793945 C115.94922376837155,43.0937578793945 114.38672376837155,42.44531987939456 113.23047376837155,41.14844487939456 C112.07422376837155,39.8593828793945 111.49609876837155,38.2187578793945 111.49609876837155,36.2500078793945 C111.49609876837155,34.19141387939453 112.09375476837158,32.5000078793945 113.28516076837161,31.187507879394502 C114.48437976837158,29.86719487939456 116.08984876837155,29.218757879394502 118.11328576837161,29.218757879394502 C120.07422376837155,29.218757879394502 121.64453576837161,29.86328887939453 122.82812976837158,31.16406987939456 C123.95703576837161,32.41406987939456 124.52344276837158,34.04297687939459 124.52344276837158,36.0312578793945 C124.52344276837158,38.08203887939453 123.94141076837161,39.75391387939453 122.77344276837158,41.07031987939456 zM108.98047376837155,20.292976879394587 C107.05469276837158,20.292976879394587 105.54687976837158,18.968757879394502 105.54687976837158,16.761726879394587 C105.54687976837158,14.50781987939456 107.02344276837158,13.128913879394531 109.09375476837158,13.128913879394531 C111.13281676837158,13.128913879394531 112.49609876837155,14.566413879394531 112.49609876837155,16.64844487939456 C112.49609876837155,19.16406987939456 110.72656676837158,20.292976879394587 108.98047376837155,20.292976879394587 zM110.64844276837158,31.703132879394502 L107.38672376837155,31.703132879394502 L107.38672376837155,38.16797687939459 C107.38672376837155,39.8125078793945 107.96484876837155,40.6250078793945 109.11328576837161,40.6250078793945 C109.64453576837161,40.6250078793945 110.07812976837158,40.58594487939456 110.42578576837161,40.496100879394476 L110.51172376837155,42.7343828793945 C109.92578576837161,42.9531328793945 109.16016076837161,43.06641387939453 108.21094276837158,43.06641387939453 C107.05078576837161,43.06641387939453 106.13281676837158,42.714850879394476 105.47656676837158,41.996100879394476 C104.81250476837158,41.28906987939456 104.48437976837158,40.089850879394476 104.48437976837158,38.41406987939456 L104.48437976837158,31.703132879394502 L102.54687976837158,31.703132879394502 L102.54687976837158,29.48828887939453 L104.48437976837158,29.48828887939453 L104.48437976837158,27.05469487939456 L107.38672376837155,26.17969487939456 L107.38672376837155,29.48828887939453 L110.64844276837158,29.48828887939453 zM100.22656676837158,41.44922687939459 C99.01953576837161,42.527350879394476 97.34375476837158,43.0625078793945 95.19922376837155,43.0625078793945 C93.21094276837158,43.0625078793945 91.61719276837158,42.67969487939456 90.41797376837155,41.91406987939456 L91.10547376837155,39.4531328793945 C92.39844276837158,40.214850879394476 93.82031676837158,40.60156987939456 95.36719276837158,40.60156987939456 C96.48828576837161,40.60156987939456 97.35156676837158,40.34766387939453 97.97266076837161,39.84766387939453 C98.58984876837155,39.34766387939453 98.90234876837155,38.67969487939456 98.90234876837155,37.8281328793945 C98.90234876837155,37.089850879394476 98.64453576837161,36.46094487939456 98.13672376837155,35.94922687939459 C97.62109876837155,35.4375078793945 96.78125476837158,34.964850879394476 95.59375476837158,34.52344487939456 C92.36328576837161,33.32422687939459 90.75000476837158,31.562507879394502 90.75000476837158,29.246100879394476 C90.75000476837158,27.730476879394587 91.31250476837158,26.48828887939453 92.45703576837161,25.51953887939453 C93.59375476837158,24.55469487939456 95.10547376837155,24.07031987939456 96.98828576837161,24.07031987939456 C98.66406676837158,24.07031987939456 100.06250476837158,24.36328887939453 101.17578576837161,24.94531987939456 L100.42969276837158,27.355476879394587 C99.39062976837158,26.78906987939456 98.21094276837158,26.50391387939453 96.89062976837158,26.50391387939453 C95.84766076837161,26.50391387939453 95.03125476837158,26.76953887939453 94.44531676837158,27.26953887939453 C93.95312976837158,27.730476879394587 93.70703576837161,28.28906987939456 93.70703576837161,28.94141387939453 C93.70703576837161,29.667976879394587 93.98828576837161,30.27344487939456 94.55078576837161,30.75391387939453 C95.04687976837158,31.19141387939453 95.94141076837161,31.66016387939453 97.23047376837155,32.1718828793945 C98.82422376837155,32.80469487939456 99.98828576837161,33.558600879394476 100.73828576837161,34.41797687939459 C101.48437976837158,35.277350879394476 101.86328576837161,36.339850879394476 101.86328576837161,37.61719487939456 C101.86328576837161,39.1875078793945 101.31250476837158,40.4687578793945 100.22656676837158,41.44922687939459 zM85.34766076837161,20.292976879394587 C84.46094276837158,20.292976879394587 83.67187976837158,19.953132879394502 83.17969276837158,19.109382879394502 L83.15234876837155,19.109382879394502 L83.06641076837161,20.136726879394587 L81.58984876837155,20.136726879394587 C81.61719276837158,19.671882879394502 81.64844276837158,18.91406987939456 81.64844276837158,18.20703887939453 L81.64844276837158,10.14844487939456 L83.37500476837158,10.14844487939456 L83.37500476837158,14.22656987939456 L83.40625476837158,14.22656987939456 C83.82812976837158,13.566413879394531 84.57422376837155,13.128913879394531 85.59766076837161,13.128913879394531 C87.27344276837158,13.128913879394531 88.46875476837158,14.52344487939456 88.45703576837161,16.605476879394587 C88.45703576837161,19.06641387939453 86.89453576837161,20.292976879394587 85.34766076837161,20.292976879394587 zM83.31641076837161,41.3437578793945 C82.21484876837155,42.50781987939456 80.85156676837158,43.0937578793945 79.21484876837155,43.0937578793945 C77.45703576837161,43.0937578793945 76.19141076837161,42.464850879394476 75.42187976837158,41.19922687939459 L75.42187976837158,48.1875078793945 L72.46484876837155,48.1875078793945 L72.46484876837155,33.8593828793945 C72.46484876837155,32.4375078793945 72.42578576837161,30.984382879394502 72.35547376837155,29.48828887939453 L74.94922376837155,29.48828887939453 L75.11719276837158,31.593757879394502 L75.16797376837155,31.593757879394502 C76.16016076837161,30.015632879394502 77.65234876837155,29.218757879394502 79.66016076837161,29.218757879394502 C81.23047376837155,29.218757879394502 82.53906676837158,29.83594487939456 83.58984876837155,31.078132879394502 C84.64062976837158,32.31641387939453 85.16406676837158,33.9531328793945 85.16406676837158,35.98047687939459 C85.16406676837158,38.246100879394476 84.55078576837161,40.027350879394476 83.31641076837161,41.3437578793945 zM71.77734876837155,20.136726879394587 L70.04687976837158,20.136726879394587 L70.04687976837158,10.14844487939456 L71.77734876837155,10.14844487939456 zM68.70312976837158,41.3437578793945 C67.60156676837158,42.50781987939456 66.23047376837155,43.0937578793945 64.60156676837158,43.0937578793945 C62.83594276837158,43.0937578793945 61.57422376837155,42.464850879394476 60.80469276837158,41.19922687939459 L60.80469276837158,48.1875078793945 L57.84766076837161,48.1875078793945 L57.84766076837161,33.8593828793945 C57.84766076837161,32.4375078793945 57.81250476837158,30.984382879394502 57.73437976837158,29.48828887939453 L60.33594276837158,29.48828887939453 L60.50000476837158,31.593757879394502 L60.55078576837161,31.593757879394502 C61.54297376837155,30.015632879394502 63.03516076837161,29.218757879394502 65.04687976837158,29.218757879394502 C66.61328576837161,29.218757879394502 67.92187976837158,29.83594487939456 68.97656676837158,31.078132879394502 C70.02344276837158,32.31641387939453 70.54687976837158,33.9531328793945 70.54687976837158,35.98047687939459 C70.54687976837158,38.246100879394476 69.93359876837155,40.027350879394476 68.70312976837158,41.3437578793945 zM57.12891076837161,18.250007879394502 C57.12891076837161,16.53516387939453 58.66016076837161,15.64844487939456 61.19531676837158,15.660163879394531 L61.19531676837158,15.550788879394531 C61.19531676837158,15.097663879394531 61.01172376837155,14.35156987939456 59.80078576837161,14.35156987939456 C59.12500476837158,14.35156987939456 58.42187976837158,14.566413879394531 57.95703576837161,14.859382879394502 L57.61719276837158,13.734382879394502 C58.12500476837158,13.425788879394531 59.01172376837155,13.128913879394531 60.09375476837158,13.128913879394531 C62.28906676837158,13.128913879394531 62.92187976837158,14.52344487939456 62.92187976837158,16.027350879394476 L62.92187976837158,18.48828887939453 C62.92187976837158,19.109382879394502 62.95312976837158,19.714850879394476 63.03516076837161,20.136726879394587 L61.47266076837161,20.136726879394587 L61.34766076837161,19.37891387939453 L61.30469276837158,19.37891387939453 C60.89844276837158,19.91016387939453 60.17969276837158,20.292976879394587 59.28125476837158,20.292976879394587 C57.90234876837155,20.292976879394587 57.12891076837161,19.292976879394587 57.12891076837161,18.250007879394502 zM53.56641076837161,20.136726879394587 L51.85937976837158,20.136726879394587 L49.31641076837161,13.285163879394531 L51.18750476837158,13.285163879394531 L52.29687976837158,16.761726879394587 C52.49219276837158,17.36328887939453 52.63672376837155,17.91406987939456 52.76172376837155,18.47656987939456 L52.80469276837158,18.47656987939456 C52.92969276837158,17.91406987939456 53.08594276837158,17.37891387939453 53.26953576837161,16.761726879394587 L54.36719276837158,13.285163879394531 L56.17969276837158,13.285163879394531 zM52.89453576837161,42.79297687939459 L51.16797376837155,37.37891387939453 L45.17187976837158,37.37891387939453 L43.53125476837158,42.79297687939459 L40.46875476837158,42.79297687939459 L46.40234876837155,24.343757879394502 L50.07422376837155,24.343757879394502 L56.04297376837155,42.79297687939459 zM32.00391076837161,42.09766387939453 C32.00391076837161,43.76953887939453 30.640629768371582,45.1250078793945 28.972660768371583,45.1250078793945 L15.976566768371583,45.1250078793945 C14.30469276837158,45.1250078793945 12.941410768371583,43.76953887939453 12.941410768371583,42.09766387939453 L12.941410768371583,13.222663879394531 C12.941410768371583,11.550788879394531 14.30469276837158,10.191413879394531 15.976566768371583,10.191413879394531 L28.972660768371583,10.191413879394531 C30.640629768371582,10.191413879394531 32.00391076837161,11.550788879394531 32.00391076837161,13.222663879394531 zM43.52734876837155,10.652350879394476 L45.73828576837161,10.652350879394476 L48.82031676837158,20.136726879394587 L46.94922376837155,20.136726879394587 L46.08984876837155,17.449226879394587 L43.09375476837158,17.449226879394587 L42.27734876837155,20.136726879394587 L40.48828576837161,20.136726879394587 zM67.33203576837161,13.285163879394531 L67.33203576837161,20.136726879394587 L65.60156676837158,20.136726879394587 L65.60156676837158,13.285163879394531 zM66.47266076837161,10.42969487939456 C67.06250476837158,10.42969487939456 67.42969276837158,10.83594487939456 67.44531676837158,11.371100879394476 C67.44531676837158,11.878913879394531 67.06250476837158,12.300788879394531 66.45703576837161,12.300788879394531 C65.88281676837158,12.300788879394531 65.50391076837161,11.878913879394531 65.50391076837161,11.371100879394476 C65.50391076837161,10.83594487939456 65.89453576837161,10.42969487939456 66.47266076837161,10.42969487939456 zM76.70703576837161,14.35156987939456 C76.03125476837158,14.35156987939456 75.32812976837158,14.566413879394531 74.86328576837161,14.859382879394502 L74.52344276837158,13.734382879394502 C75.03125476837158,13.425788879394531 75.91797376837155,13.128913879394531 77.00000476837158,13.128913879394531 C79.19531676837158,13.128913879394531 79.82812976837158,14.52344487939456 79.82812976837158,16.027350879394476 L79.82812976837158,18.48828887939453 C79.82812976837158,19.109382879394502 79.85547376837155,19.714850879394476 79.94141076837161,20.136726879394587 L78.37891076837161,20.136726879394587 L78.25391076837161,19.37891387939453 L78.21094276837158,19.37891387939453 C77.80078576837161,19.91016387939453 77.08594276837158,20.292976879394587 76.18359876837155,20.292976879394587 C74.80469276837158,20.292976879394587 74.03125476837158,19.292976879394587 74.03125476837158,18.250007879394502 C74.03125476837158,16.53516387939453 75.56641076837161,15.64844487939456 78.09766076837161,15.660163879394531 L78.09766076837161,15.550788879394531 C78.09766076837161,15.097663879394531 77.91406676837158,14.35156987939456 76.70703576837161,14.35156987939456 zM90.42969276837158,10.14844487939456 L92.16016076837161,10.14844487939456 L92.16016076837161,20.136726879394587 L90.42969276837158,20.136726879394587 zM97.52344276837158,13.128913879394531 C99.74609876837155,13.128913879394531 100.47656676837158,14.957038879394531 100.47656676837158,16.464850879394476 C100.47656676837158,16.78906987939456 100.44922376837155,17.042976879394587 100.42187976837158,17.19531987939456 L95.83594276837158,17.19531987939456 C95.87500476837158,18.433600879394476 96.83203576837161,18.968757879394502 97.94531676837158,18.968757879394502 C98.74609876837155,18.968757879394502 99.30859876837155,18.843757879394502 99.84375476837158,18.66016387939453 L100.09766076837161,19.839850879394476 C99.50781676837158,20.093757879394502 98.69141076837161,20.277350879394476 97.70703576837161,20.277350879394476 C95.48047376837155,20.277350879394476 94.17187976837158,18.91406987939456 94.17187976837158,16.81641387939453 C94.17187976837158,14.91406987939456 95.32812976837158,13.128913879394531 97.52344276837158,13.128913879394531 zM115.69531676837158,13.285163879394531 L115.77734876837155,14.312507879394502 L115.82031676837158,14.312507879394502 C116.13281676837158,13.777350879394476 116.87891076837161,13.128913879394531 118.01562976837158,13.128913879394531 C119.21484876837155,13.128913879394531 120.44922376837155,13.902350879394476 120.44922376837155,16.07031987939456 L120.44922376837155,20.136726879394587 L118.72266076837161,20.136726879394587 L118.72266076837161,16.265632879394502 C118.72266076837161,15.281257879394502 118.35547376837155,14.535163879394531 117.41016076837161,14.535163879394531 C116.72266076837161,14.535163879394531 116.24219276837158,15.027350879394476 116.05859876837155,15.550788879394531 C116.00391076837161,15.691413879394531 115.97656676837158,15.902350879394476 115.97656676837158,16.09766387939453 L115.97656676837158,20.136726879394587 L114.24609876837155,20.136726879394587 L114.24609876837155,15.324226879394587 C114.24609876837155,14.535163879394531 114.21875476837158,13.875007879394502 114.18750476837158,13.285163879394531 zM143.15625476837158,13.128913879394531 C145.3789107683716,13.128913879394531 146.10937976837158,14.957038879394531 146.10937976837158,16.464850879394476 C146.10937976837158,16.78906987939456 146.0820357683716,17.042976879394587 146.05469276837158,17.19531987939456 L141.46875476837158,17.19531987939456 C141.51172376837155,18.433600879394476 142.46875476837158,18.968757879394502 143.57812976837158,18.968757879394502 C144.3789107683716,18.968757879394502 144.9414107683716,18.843757879394502 145.47656676837158,18.66016387939453 L145.73047376837155,19.839850879394476 C145.14062976837158,20.093757879394502 144.32422376837155,20.277350879394476 143.33984876837155,20.277350879394476 C141.11719276837158,20.277350879394476 139.80859876837155,18.91406987939456 139.80859876837155,16.81641387939453 C139.80859876837155,14.91406987939456 140.96094276837158,13.128913879394531 143.15625476837158,13.128913879394531 zM152.3945357683716,0.000007879394502197101 L6.722660768371583,0.000007879394502197101 C3.015629768371582,0.000007879394502197101 0.00000476837158203125,3.015632879394502 0.00000476837158203125,6.722663879394531 L0.00000476837158203125,48.58594487939456 C0.00000476837158203125,52.28906987939456 3.015629768371582,55.30078887939453 6.722660768371583,55.30078887939453 L152.3945357683716,55.30078887939453 C156.10156676837158,55.30078887939453 159.11719276837158,52.28906987939456 159.11719276837158,48.58594487939456 L159.11719276837158,6.722663879394531 C159.11719276837158,3.015632879394502 156.10156676837158,0.000007879394502197101 152.3945357683716,0.000007879394502197101 zM45.06250476837158,13.80469487939456 C44.87891076837161,13.22656987939456 44.72266076837161,12.582038879394531 44.58594276837158,12.031257879394502 L44.55469276837158,12.031257879394502 C44.41406676837158,12.582038879394531 44.26172376837155,13.24219487939456 44.10547376837155,13.80469487939456 L43.37500476837158,16.140632879394502 L45.80859876837155,16.140632879394502 zM61.19531676837158,18.109382879394502 C61.23437976837158,17.984382879394502 61.23437976837158,17.855476879394587 61.23437976837158,17.730476879394587 L61.23437976837158,16.78906987939456 C60.01172376837155,16.77344487939456 58.84375476837158,17.027350879394476 58.84375476837158,18.06641387939453 C58.84375476837158,18.74219487939456 59.28125476837158,19.05469487939456 59.82812976837158,19.05469487939456 C60.53125476837158,19.05469487939456 61.02344276837158,18.60156987939456 61.19531676837158,18.109382879394502 zM140.4257857683716,31.23828887939453 C139.46094276837158,31.23828887939453 138.67969276837158,31.64844487939456 138.07422376837155,32.44922687939459 C137.5820357683716,33.08594487939456 137.2851607683716,33.85156987939456 137.19531676837158,34.74219487939456 L143.35547376837155,34.74219487939456 C143.37109876837155,33.86719487939456 143.18359876837155,33.11328887939453 142.78125476837158,32.47266387939453 C142.2695357683716,31.656257879394502 141.48437976837158,31.23828887939453 140.4257857683716,31.23828887939453 zM48.15625476837158,26.808600879394476 L48.10547376837155,26.808600879394476 C47.91797376837155,27.593757879394502 47.63281676837158,28.750007879394502 47.22656676837158,30.28516387939453 L45.69141076837161,35.10156987939456 L50.64453576837161,35.10156987939456 L49.09375476837158,30.28516387939453 C48.92187976837158,29.78906987939456 48.60937976837158,28.62891387939453 48.15625476837158,26.808600879394476 zM78.70312976837158,31.56641387939453 C77.96875476837158,31.56641387939453 77.31641076837161,31.808600879394476 76.71875476837158,32.28906987939456 C76.12891076837161,32.7812578793945 75.73828576837161,33.41406987939456 75.55469276837158,34.19922687939459 C75.46484876837155,34.56641387939453 75.42187976837158,34.86328887939453 75.42187976837158,35.10547687939459 L75.42187976837158,37.31641387939453 C75.42187976837158,38.28516387939453 75.71484876837155,39.10547687939459 76.30859876837155,39.77344487939456 C76.90234876837155,40.433600879394476 77.67187976837158,40.7656328793945 78.61719276837158,40.7656328793945 C79.73437976837158,40.7656328793945 80.60156676837158,40.339850879394476 81.22266076837161,39.48047687939459 C81.84375476837158,38.621100879394476 82.15625476837158,37.49219487939456 82.15625476837158,36.08203887939453 C82.15625476837158,34.78906987939456 81.86328576837161,33.72266387939453 81.28125476837158,32.88672687939459 C80.63672376837155,32.01172687939459 79.77734876837155,31.56641387939453 78.70312976837158,31.56641387939453 zM118.00781676837158,31.38281987939456 C116.82422376837155,31.38281987939456 115.92187976837158,31.906257879394502 115.30469276837158,32.964850879394476 C114.76953576837161,33.83594487939456 114.50781676837158,34.89844487939456 114.50781676837158,36.152350879394476 C114.50781676837158,37.37891387939453 114.76953576837161,38.4218828793945 115.30469276837158,39.29297687939459 C115.93359876837155,40.34766387939453 116.82812976837158,40.871100879394476 117.98437976837158,40.871100879394476 C119.10937976837158,40.871100879394476 119.99609876837155,40.339850879394476 120.63281676837158,39.26172687939459 C121.18359876837155,38.37891387939453 121.46094276837158,37.31641387939453 121.46094276837158,36.10156987939456 C121.46094276837158,34.88672687939459 121.19531676837158,33.83594487939456 120.66797376837155,32.964850879394476 C120.03906676837158,31.906257879394502 119.15625476837158,31.38281987939456 118.00781676837158,31.38281987939456 zM64.08594276837158,31.56641387939453 C63.35547376837155,31.56641387939453 62.69922376837155,31.808600879394476 62.10156676837158,32.28906987939456 C61.50781676837158,32.7812578793945 61.12109876837155,33.41406987939456 60.93750476837158,34.19922687939459 C60.84766076837161,34.56641387939453 60.80469276837158,34.86328887939453 60.80469276837158,35.10547687939459 L60.80469276837158,37.31641387939453 C60.80469276837158,38.28516387939453 61.09375476837158,39.10547687939459 61.69141076837161,39.77344487939456 C62.28125476837158,40.433600879394476 63.05469276837158,40.7656328793945 64.00391076837161,40.7656328793945 C65.11328576837161,40.7656328793945 65.98437976837158,40.339850879394476 66.60547376837155,39.48047687939459 C67.22656676837158,38.621100879394476 67.53125476837158,37.49219487939456 67.53125476837158,36.08203887939453 C67.53125476837158,34.78906987939456 67.24609876837155,33.72266387939453 66.66016076837161,32.88672687939459 C66.01953576837161,32.01172687939459 65.16016076837161,31.56641387939453 64.08594276837158,31.56641387939453 zM14.785160768371583,39.03516387939453 L30.16016076837161,39.03516387939453 L30.16016076837161,16.292976879394587 L14.785160768371583,16.292976879394587 zM22.472660768371583,40.37891387939453 C21.609379768371582,40.37891387939453 20.906254768371582,41.08203887939453 20.906254768371582,41.94531987939456 C20.906254768371582,42.8125078793945 21.609379768371582,43.5156328793945 22.472660768371583,43.5156328793945 C23.33984876837158,43.5156328793945 24.039066768371583,42.8125078793945 24.039066768371583,41.94531987939456 C24.039066768371583,41.08203887939453 23.33984876837158,40.37891387939453 22.472660768371583,40.37891387939453 zM20.96484876837158,13.972663879394531 L23.976566768371583,13.972663879394531 C24.175785768371583,13.972663879394531 24.33594276837158,13.812507879394502 24.33594276837158,13.621100879394476 C24.33594276837158,13.421882879394502 24.175785768371583,13.261726879394587 23.976566768371583,13.261726879394587 L20.96484876837158,13.261726879394587 C20.77344276837158,13.261726879394587 20.609379768371582,13.421882879394502 20.609379768371582,13.621100879394476 C20.609379768371582,13.812507879394502 20.77344276837158,13.972663879394531 20.96484876837158,13.972663879394531 " id="svg_2" class=""/>
</g>
</svg>